<?xml version="1.0" encoding="utf-8"?>
<svg version="1.1" xmlns:xlink="http://www.w3.org/1999/xlink" width="355px" height="213px" xmlns="http://www.w3.org/2000/svg">
  <g transform="matrix(1 0 0 1 -94 -193 )">
    <path d="M 94 193  L 449 193  L 449 406  L 94 406  L 94 193  " fill-rule="nonzero" fill="#cccccc" stroke="none" />
    <path d="M 109 208  L 434 208  L 434 391  L 109 391  L 109 208  " fill-rule="nonzero" fill="#ffffff" stroke="none" />
    <path d="M 294.57500000000005 256.9  C 285.629 256.9  278.6 249.87099999999998  278.6 240.92499999999998  C 278.6 231.97899999999998  285.629 224.95  294.57500000000005 224.95  C 303.521 224.95  310.55 231.97899999999998  310.55 240.92499999999998  C 310.55 249.87099999999998  303.521 256.9  294.57500000000005 256.9  " fill-rule="nonzero" fill="#cccccc" stroke="none" />
    <path d="M 115 386  L 115 291.4  L 193.5 248.4  L 303.4 324.08  L 366.20000000000005 274.2  L 429 324.08  L 429 386  L 115 386  " fill-rule="nonzero" fill="#169bd5" stroke="none" />
  </g>
</svg>