<?xml version="1.0" encoding="utf-8"?>
<svg version="1.1" xmlns:xlink="http://www.w3.org/1999/xlink" width="355px" height="213px" xmlns="http://www.w3.org/2000/svg">
  <g transform="matrix(1 0 0 1 -489 -193 )">
    <path d="M 489 193  L 844 193  L 844 406  L 489 406  L 489 193  " fill-rule="nonzero" fill="#cccccc" stroke="none" />
    <path d="M 504 208  L 829 208  L 829 391  L 504 391  L 504 208  " fill-rule="nonzero" fill="#ffffff" stroke="none" />
    <path d="M 689.575 256.9  C 680.629 256.9  673.6 249.87099999999998  673.6 240.92499999999998  C 673.6 231.97899999999998  680.629 224.95  689.575 224.95  C 698.5210000000001 224.95  705.5500000000001 231.97899999999998  705.5500000000001 240.92499999999998  C 705.5500000000001 249.87099999999998  698.5210000000001 256.9  689.575 256.9  " fill-rule="nonzero" fill="#cccccc" stroke="none" />
    <path d="M 510 386  L 510 291.4  L 588.5 248.4  L 698.4 324.08  L 761.2 274.2  L 824 324.08  L 824 386  L 510 386  " fill-rule="nonzero" fill="#169bd5" stroke="none" />
  </g>
</svg>