<?xml version="1.0" encoding="utf-8"?>
<svg version="1.1" xmlns:xlink="http://www.w3.org/1999/xlink" width="50px" height="50px" xmlns="http://www.w3.org/2000/svg">
  <g transform="matrix(1 0 0 1 -78 -1843 )">
    <path d="M 48.73046875 2.24609375  C 49.57682291666667 2.6150173611111107  50 3.2552083333333313  50 4.166666666666669  L 50 18.75  C 50 19.31423611111111  49.79383680555555 19.80251736111111  49.38151041666667 20.21484375  C 48.969184027777786 20.62717013888889  48.480902777777786 20.833333333333332  47.91666666666667 21  L 33.33333333333333 21  C 32.421875 20.833333333333332  31.78168402777778 20.399305555555557  31.412760416666668 19.53125  C 31.043836805555557 18.684895833333332  31.195746527777786 17.936197916666668  31.868489583333332 17.28515625  L 36.36067708333333 12.79296875  C 33.148871527777786 9.819878472222216  29.361979166666668 8.333333333333332  25 8.333333333333332  C 22.743055555555557 8.333333333333332  20.589192708333336 8.772786458333332  18.538411458333336 9.651692708333332  C 16.487630208333336 10.530598958333332  14.713541666666666 11.71875  13.216145833333334 13.216145833333332  C 11.71875 14.713541666666668  10.530598958333332 16.487630208333332  9.651692708333332 18.538411458333332  C 8.772786458333332 20.589192708333332  8.333333333333332 22.743055555555554  8.333333333333332 25  C 8.333333333333332 27.256944444444443  8.772786458333332 29.410807291666664  9.651692708333332 31.461588541666664  C 10.530598958333332 33.512369791666664  11.71875 35.286458333333336  13.216145833333334 36.783854166666664  C 14.713541666666666 38.28125  16.487630208333336 39.46940104166667  18.538411458333336 40.34830729166667  C 20.589192708333336 41.22721354166667  22.743055555555557 41.66666666666667  25 41.66666666666667  C 27.58246527777778 41.66666666666667  30.02387152777778 41.10243055555556  32.32421875 39.97395833333333  C 34.62456597222223 38.84548611111111  36.566840277777786 37.25043402777778  38.15104166666667 35.188802083333336  C 38.30295138888889 34.97178819444444  38.552517361111114 34.84157986111111  38.89973958333333 34.798177083333336  C 39.22526041666667 34.798177083333336  39.496527777777786 34.895833333333336  39.71354166666667 35.091145833333336  L 44.17317708333333 39.58333333333333  C 44.36848958333333 39.75694444444444  44.47157118055556 39.97938368055556  44.482421875 40.25065104166667  C 44.49327256944445 40.52191840277777  44.411892361111114 40.76605902777777  44.23828125 40.98307291666667  C 41.872829861111114 43.84765625  39.008246527777786 46.06662326388889  35.64453125 47.63997395833333  C 32.28081597222223 49.21332465277777  28.73263888888889 50  25 50  C 21.614583333333336 50  18.381076388888893 49.33810763888889  15.299479166666666 48.01432291666667  C 12.217881944444446 46.69053819444444  9.559461805555557 44.91102430555556  7.32421875 42.67578125  C 5.088975694444445 40.44053819444444  3.309461805555556 37.78211805555556  1.9856770833333335 34.700520833333336  C 0.6618923611111113 31.618923611111104  0 28.385416666666664  0 25  C 0 21.614583333333332  0.6618923611111113 18.38107638888889  1.9856770833333335 15.299479166666668  C 3.309461805555556 12.217881944444443  5.088975694444445 9.559461805555552  7.32421875 7.32421875  C 9.559461805555557 5.088975694444442  12.217881944444446 3.3094618055555527  15.299479166666666 1.9856770833333315  C 18.381076388888893 0.6618923611111105  21.614583333333336 0  25 0  C 28.190104166666668 0  31.277126736111114 0.6022135416666685  34.26106770833333 1.806640625  C 37.24500868055556 3.0110677083333313  39.89800347222223 4.709201388888884  42.22005208333333 6.901041666666669  L 46.45182291666667 2.7018229166666687  C 47.08116319444445 2.0290798611111107  47.84071180555556 1.877170138888884  48.73046875 2.24609375  Z " fill-rule="nonzero" fill="#000000" stroke="none" transform="matrix(1 0 0 1 78 1843 )" />
  </g>
</svg>