<?xml version="1.0" encoding="utf-8"?>
<svg version="1.1" xmlns:xlink="http://www.w3.org/1999/xlink" width="52px" height="50px" xmlns="http://www.w3.org/2000/svg">
  <g transform="matrix(1 0 0 1 -81 -1338 )">
    <path d="M 50.6796875 2.24609375  C 51.559895833333336 2.6150173611111107  52 3.2552083333333313  52 4.166666666666669  L 52 18.75  C 52 19.31423611111111  51.78559027777777 19.80251736111111  51.356770833333336 20.21484375  C 50.92795138888889 20.62717013888889  50.42013888888889 20.833333333333332  49.833333333333336 21  L 34.666666666666664 21  C 33.71875 20.833333333333332  33.05295138888889 20.399305555555557  32.669270833333336 19.53125  C 32.28559027777778 18.684895833333332  32.44357638888889 17.936197916666668  33.143229166666664 17.28515625  L 37.815104166666664 12.79296875  C 34.47482638888889 9.819878472222216  30.536458333333336 8.333333333333332  26 8.333333333333332  C 23.65277777777778 8.333333333333332  21.412760416666668 8.772786458333332  19.279947916666668 9.651692708333332  C 17.147135416666668 10.530598958333332  15.302083333333332 11.71875  13.744791666666668 13.216145833333332  C 12.1875 14.713541666666668  10.951822916666666 16.487630208333332  10.037760416666666 18.538411458333332  C 9.123697916666666 20.589192708333332  8.666666666666666 22.743055555555554  8.666666666666666 25  C 8.666666666666666 27.256944444444443  9.123697916666666 29.410807291666664  10.037760416666666 31.461588541666664  C 10.951822916666666 33.512369791666664  12.1875 35.286458333333336  13.744791666666668 36.783854166666664  C 15.302083333333332 38.28125  17.147135416666668 39.46940104166667  19.279947916666668 40.34830729166667  C 21.412760416666668 41.22721354166667  23.65277777777778 41.66666666666667  26 41.66666666666667  C 28.68576388888889 41.66666666666667  31.22482638888889 41.10243055555556  33.6171875 39.97395833333333  C 36.009548611111114 38.84548611111111  38.02951388888889 37.25043402777778  39.677083333333336 35.188802083333336  C 39.83506944444444 34.97178819444444  40.09461805555556 34.84157986111111  40.455729166666664 34.798177083333336  C 40.794270833333336 34.798177083333336  41.07638888888889 34.895833333333336  41.302083333333336 35.091145833333336  L 45.940104166666664 39.58333333333333  C 46.143229166666664 39.75694444444444  46.25043402777778 39.97938368055556  46.26171875 40.25065104166667  C 46.27300347222223 40.52191840277777  46.18836805555556 40.76605902777777  46.0078125 40.98307291666667  C 43.54774305555556 43.84765625  40.56857638888889 46.06662326388889  37.0703125 47.63997395833333  C 33.572048611111114 49.21332465277777  29.881944444444446 50  26 50  C 22.479166666666668 50  19.116319444444446 49.33810763888889  15.911458333333332 48.01432291666667  C 12.706597222222223 46.69053819444444  9.941840277777779 44.91102430555556  7.6171875 42.67578125  C 5.292534722222222 40.44053819444444  3.441840277777778 37.78211805555556  2.065104166666667 34.700520833333336  C 0.6883680555555557 31.618923611111104  0 28.385416666666664  0 25  C 0 21.614583333333332  0.6883680555555557 18.38107638888889  2.065104166666667 15.299479166666668  C 3.441840277777778 12.217881944444443  5.292534722222222 9.559461805555552  7.6171875 7.32421875  C 9.941840277777779 5.088975694444442  12.706597222222223 3.3094618055555527  15.911458333333332 1.9856770833333315  C 19.116319444444446 0.6618923611111105  22.479166666666668 0  26 0  C 29.317708333333336 0  32.52821180555556 0.6022135416666685  35.631510416666664 1.806640625  C 38.73480902777778 3.0110677083333313  41.493923611111114 4.709201388888884  43.908854166666664 6.901041666666669  L 48.309895833333336 2.7018229166666687  C 48.96440972222223 2.0290798611111107  49.75434027777778 1.877170138888884  50.6796875 2.24609375  Z " fill-rule="nonzero" fill="#000000" stroke="none" transform="matrix(1 0 0 1 81 1338 )" />
  </g>
</svg>