<?xml version="1.0" encoding="utf-8"?>
<svg version="1.1" xmlns:xlink="http://www.w3.org/1999/xlink" width="53px" height="50px" xmlns="http://www.w3.org/2000/svg">
  <g transform="matrix(1 0 0 1 -83 -1407 )">
    <path d="M 51.654296875 2.24609375  C 52.55143229166667 2.6150173611111107  53 3.2552083333333313  53 4.166666666666669  L 53 18.75  C 53 19.31423611111111  52.781467013888886 19.80251736111111  52.34440104166667 20.21484375  C 51.90733506944445 20.62717013888889  51.38975694444445 20.833333333333332  50.79166666666667 21  L 35.33333333333333 21  C 34.3671875 20.833333333333332  33.68858506944444 20.399305555555557  33.29752604166667 19.53125  C 32.90646701388889 18.684895833333332  33.06749131944445 17.936197916666668  33.78059895833333 17.28515625  L 38.54231770833333 12.79296875  C 35.13780381944445 9.819878472222216  31.123697916666668 8.333333333333332  26.5 8.333333333333332  C 24.107638888888893 8.333333333333332  21.824544270833336 8.772786458333332  19.650716145833336 9.651692708333332  C 17.476888020833336 10.530598958333332  15.596354166666666 11.71875  14.009114583333334 13.216145833333332  C 12.421875 14.713541666666668  11.162434895833332 16.487630208333332  10.230794270833332 18.538411458333332  C 9.299153645833332 20.589192708333332  8.833333333333332 22.743055555555554  8.833333333333332 25  C 8.833333333333332 27.256944444444443  9.299153645833332 29.410807291666664  10.230794270833332 31.461588541666664  C 11.162434895833332 33.512369791666664  12.421875 35.286458333333336  14.009114583333334 36.783854166666664  C 15.596354166666666 38.28125  17.476888020833336 39.46940104166667  19.650716145833336 40.34830729166667  C 21.824544270833336 41.22721354166667  24.107638888888893 41.66666666666667  26.5 41.66666666666667  C 29.237413194444446 41.66666666666667  31.825303819444446 41.10243055555556  34.263671875 39.97395833333333  C 36.70203993055556 38.84548611111111  38.76085069444445 37.25043402777778  40.44010416666667 35.188802083333336  C 40.60112847222222 34.97178819444444  40.865668402777786 34.84157986111111  41.23372395833333 34.798177083333336  C 41.57877604166667 34.798177083333336  41.86631944444445 34.895833333333336  42.09635416666667 35.091145833333336  L 46.82356770833333 39.58333333333333  C 47.03059895833333 39.75694444444444  47.13986545138889 39.97938368055556  47.1513671875 40.25065104166667  C 47.162868923611114 40.52191840277777  47.076605902777786 40.76605902777777  46.892578125 40.98307291666667  C 44.385199652777786 43.84765625  41.34874131944445 46.06662326388889  37.783203125 47.63997395833333  C 34.21766493055556 49.21332465277777  30.45659722222222 50  26.5 50  C 22.911458333333336 50  19.483940972222225 49.33810763888889  16.217447916666664 48.01432291666667  C 12.950954861111112 46.69053819444444  10.13302951388889 44.91102430555556  7.763671875 42.67578125  C 5.394314236111112 40.44053819444444  3.5080295138888893 37.78211805555556  2.1048177083333335 34.700520833333336  C 0.7016059027777779 31.618923611111104  0 28.385416666666664  0 25  C 0 21.614583333333332  0.7016059027777779 18.38107638888889  2.1048177083333335 15.299479166666668  C 3.5080295138888893 12.217881944444443  5.394314236111112 9.559461805555552  7.763671875 7.32421875  C 10.13302951388889 5.088975694444442  12.950954861111112 3.3094618055555527  16.217447916666664 1.9856770833333315  C 19.483940972222225 0.6618923611111105  22.911458333333336 0  26.5 0  C 29.881510416666668 0  33.153754340277786 0.6022135416666685  36.31673177083333 1.806640625  C 39.47970920138889 3.0110677083333313  42.29188368055556 4.709201388888884  44.75325520833333 6.901041666666669  L 49.23893229166667 2.7018229166666687  C 49.906032986111114 2.0290798611111107  50.71115451388889 1.877170138888884  51.654296875 2.24609375  Z " fill-rule="nonzero" fill="#000000" stroke="none" transform="matrix(1 0 0 1 83 1407 )" />
  </g>
</svg>